<?xml version="1.0" encoding="UTF-8"?>
<svg width="1000px" height="324px" viewBox="0 0 1000 324" version="1.1" xmlns="http://www.w3.org/2000/svg">
    <g id="Page-1" stroke="none" stroke-width="1" fill="none" fill-rule="evenodd">
        <g id="bit">
            <rect id="Rectangle" fill="#FFFFFF" x="0" y="0" width="1000" height="324" rx="16"></rect>
            <path d="M500,65 C589.411255,65 662,137.588745 662,227 C662,316.411255 589.411255,389 500,389 C410.588745,389 338,316.411255 338,227 C338,137.588745 410.588745,65 500,65 Z" id="Oval" fill="#0066FF"></path>
            <path d="M500,95 C572.842712,95 632,154.157288 632,227 C632,299.842712 572.842712,359 500,359 C427.157288,359 368,299.842712 368,227 C368,154.157288 427.157288,95 500,95 Z M500,125 C443.771525,125 398,170.771525 398,227 C398,283.228475 443.771525,329 500,329 C556.228475,329 602,283.228475 602,227 C602,170.771525 556.228475,125 500,125 Z" id="Shape" fill="#FFFFFF" fill-rule="nonzero"></path>
        </g>
    </g>
</svg>
