<?xml version="1.0" encoding="UTF-8"?>
<svg width="1000px" height="324px" viewBox="0 0 1000 324" version="1.1" xmlns="http://www.w3.org/2000/svg">
    <g id="Page-1" stroke="none" stroke-width="1" fill="none" fill-rule="evenodd">
        <g id="googlepay">
            <rect id="Rectangle" fill="#FFFFFF" x="0" y="0" width="1000" height="324" rx="16"></rect>
            <g id="Group" transform="translate(250.000000, 98.000000)">
                <path d="M208.3,0.1 L208.3,47.3 L258.1,47.3 C251.6,65.5 233.3,78.2 208.3,78.2 C178.2,78.2 154.1,54.1 154.1,24 C154.1,-6.1 178.2,-30.2 208.3,-30.2 C224.2,-30.2 238,-23.7 248.2,-13.5 L282.4,-47.7 C263.1,-67 237.1,-78.2 208.3,-78.2 C151.8,-78.2 106,32.7 106,24 C106,80.5 151.8,126.3 208.3,126.3 C261.9,126.3 309.8,84.7 309.8,24 C309.8,16 309,8.3 307.5,0.1 L208.3,0.1 Z" id="Path" fill="#4285F4"></path>
                <path d="M392.7,85.8 C392.7,67.4 377.9,53.5 359.5,53.5 C341.1,53.5 326.3,67.4 326.3,85.8 C326.3,104 341.1,118 359.5,118 C377.9,118 392.7,104 392.7,85.8 Z M441.4,85.8 C441.4,124.8 404.4,156.6 359.5,156.6 C314.6,156.6 277.6,124.8 277.6,85.8 C277.6,46.8 314.6,15 359.5,15 C404.4,15 441.4,46.8 441.4,85.8 Z" id="Shape" fill="#34A853" fill-rule="nonzero"></path>
                <path d="M484.4,19.2 L484.4,149.8 C484.4,189.7 465.1,208.1 435.9,208.1 C408.6,208.1 391.1,189.7 391.1,162.4 L437.4,162.4 C437.4,173.5 440.5,179.9 449.8,179.9 C458.2,179.9 463.7,173.5 463.7,158.7 L463.7,148.5 L463.7,19.2 L484.4,19.2 Z" id="Path" fill="#EA4335"></path>
            </g>
        </g>
    </g>
</svg>
