<?xml version="1.0" encoding="UTF-8"?>
<svg width="1000px" height="324px" viewBox="0 0 1000 324" version="1.1" xmlns="http://www.w3.org/2000/svg">
    <g id="Page-1" stroke="none" stroke-width="1" fill="none" fill-rule="evenodd">
        <g id="visa" fill-rule="nonzero">
            <rect id="Rectangle" fill="#FFFFFF" x="0" y="0" width="1000" height="324" rx="16"></rect>
            <path d="M433.807,137.436 L405.171,137.436 L376.743,251.529 L405.378,251.529 L433.807,137.436 Z M375.047,137.436 L347.848,213.893 L344.121,197.389 L344.122,197.389 L331.842,150.414 C331.842,150.414 330.81,137.436 316.264,137.436 L269.154,137.436 L268.622,139.955 C268.622,139.955 284.376,143.005 301.959,152.079 L326.556,251.528 L356.467,251.528 L401.609,137.436 L375.047,137.436 Z M660.115,251.529 L686.534,251.529 L663.338,137.437 L640.141,137.437 C627.917,137.437 626.353,146.51 626.353,146.51 L583.956,251.529 L613.867,251.529 L620.627,234.18 L660.219,234.18 L660.115,251.529 Z M629.952,210.41 L646.741,162.744 L654.637,210.41 L629.952,210.41 Z M539.361,164.932 L544.981,137.436 L497.66,137.436 L476.234,251.529 L523.556,251.529 L529.175,223.93 L560.994,223.93 L566.613,196.434 L534.793,196.434 L539.361,164.932 Z" id="Shape" fill="#00579F"></path>
            <path d="M350.519,183.583 L331.842,150.414 C331.842,150.414 330.81,137.436 316.264,137.436 L269.154,137.436 L268.622,139.955 C268.622,139.955 293.967,144.456 317.367,160.959 C339.978,176.931 350.519,183.583 350.519,183.583 Z" id="Shape" fill="#FAA61A"></path>
        </g>
    </g>
</svg>
